# Blender v2.76 (sub 0) OBJ File: 'base1p1.blend'
# www.blender.org
mtllib base1p1.mtl
o Cube
v 0.759909 -0.623831 1.000000
v 0.759909 -0.623831 1.000000
v 0.759909 -0.623831 -1.000000
v 0.759909 -0.623831 -1.000000
v 0.759909 -0.256000 -0.000000
v 0.759909 -0.258853 -1.009805
v 0.759909 -0.061485 -0.993153
v 0.759909 0.109914 -0.943198
v 0.759909 0.224180 -0.897406
v 0.759909 0.307282 -0.843288
v 0.759909 0.379997 -0.776682
v 0.759909 0.452712 -0.672609
v 0.759909 0.499457 -0.576862
v 0.759909 0.530620 -0.485278
v 0.759909 0.546202 -0.385369
v 0.759909 0.551396 -0.209805
v 0.759909 0.551396 -0.006544
v 0.759909 0.236513 0.097967
v 0.759909 0.251081 0.049943
v 0.759909 0.256000 -0.000000
v 0.759909 0.251081 -0.049943
v 0.759909 0.236513 -0.097967
v 0.759909 0.212856 -0.142226
v 0.759909 0.181019 -0.181020
v 0.759909 0.142226 -0.212856
v 0.759909 0.097967 -0.236513
v 0.759909 0.049943 -0.251081
v 0.759909 -0.000000 -0.256000
v 0.759909 -0.049943 -0.251081
v 0.759909 -0.097967 -0.236513
v 0.759909 -0.142226 -0.212856
v 0.759909 -0.181019 -0.181019
v 0.759909 -0.212856 -0.142226
v 0.759909 -0.236513 -0.097967
v 0.759909 -0.251081 -0.049943
v 0.759909 -0.251081 0.049943
v 0.759909 -0.236513 0.097967
v 0.759909 -0.212856 0.142226
v 0.759909 -0.181019 0.181019
v 0.759909 -0.142226 0.212856
v 0.759909 -0.097967 0.236513
v 0.759909 -0.049943 0.251081
v 0.759909 0.000000 0.256000
v 0.759909 0.049943 0.251081
v 0.759909 0.097967 0.236513
v 0.759909 0.142226 0.212856
v 0.759909 0.181019 0.181019
v 0.759909 0.212856 0.142226
v 0.759909 0.555185 0.200000
v 0.759909 0.549991 0.375564
v 0.759909 0.534409 0.475474
v 0.759909 0.503246 0.567058
v 0.759909 0.456501 0.662804
v 0.759909 0.383786 0.766877
v 0.759909 0.311072 0.833484
v 0.759909 0.227969 0.887601
v 0.759909 0.113703 0.933393
v 0.759909 -0.057696 0.983348
v 0.759909 -0.255064 1.000000
v -0.759909 -0.623831 1.000000
v -0.759909 -0.623831 -1.000000
v -0.759909 -0.623831 -1.000000
v 0.533399 0.534409 0.475474
v 0.533399 0.503246 0.567058
v 0.533399 0.456501 0.662804
v 0.533399 0.383786 0.766877
v 0.533399 0.311072 0.833484
v 0.533399 0.227969 0.887601
v 0.533399 0.113703 0.933393
v 0.533399 -0.057696 0.983348
v 0.533399 -0.255064 1.000000
v 0.533399 -0.351984 1.000000
v -0.533399 -0.351984 1.000000
v -0.533399 -0.255064 1.000000
v -0.759909 -0.255064 1.000000
v -0.759909 -0.258853 -1.009805
v -0.533399 -0.258853 -1.009805
v -0.533399 -0.351984 -1.007303
v 0.533399 -0.351984 -1.007303
v 0.533399 -0.258853 -1.009805
v 0.533399 -0.061485 -0.993153
v 0.533399 0.109914 -0.943198
v 0.533399 0.224180 -0.897406
v 0.533399 0.307282 -0.843288
v 0.533399 0.379997 -0.776682
v 0.533399 0.452712 -0.672609
v 0.533399 0.499457 -0.576862
v 0.533399 0.530620 -0.485278
v 0.533399 0.546202 -0.385369
v 0.533399 0.551396 -0.209805
v 0.533399 0.551396 -0.006544
v 0.533399 0.555185 0.200000
v 0.533399 0.549991 0.375564
v -0.759909 -0.097967 -0.236513
v -0.759909 -0.049943 -0.251081
v -0.759909 0.000000 -0.256000
v -0.759909 0.049943 -0.251081
v -0.759909 0.097967 -0.236513
v -0.759909 0.142226 -0.212856
v -0.759909 0.181019 -0.181020
v -0.759909 0.212856 -0.142226
v -0.759909 0.236513 -0.097967
v -0.759909 0.251081 -0.049943
v -0.759909 0.256000 -0.000000
v -0.759909 0.251081 0.049943
v -0.759909 0.236513 0.097967
v -0.759909 0.212856 0.142226
v -0.759909 0.181019 0.181019
v -0.759909 0.142226 0.212856
v -0.759909 0.097967 0.236513
v -0.759909 0.049943 0.251081
v -0.759909 0.000000 0.256000
v -0.759909 0.549991 0.375564
v -0.759909 0.555185 0.200000
v -0.759909 0.551396 -0.006544
v -0.759909 0.551396 -0.209805
v -0.759909 0.546202 -0.385369
v -0.759909 0.530620 -0.485278
v -0.759909 0.499457 -0.576862
v -0.759909 0.452712 -0.672609
v -0.759909 0.379997 -0.776682
v -0.759909 0.307282 -0.843289
v -0.759909 0.224180 -0.897406
v -0.759909 0.109914 -0.943198
v -0.759909 -0.061485 -0.993153
v -0.759909 -0.256000 -0.000000
v -0.759909 -0.251081 -0.049943
v -0.759909 -0.236513 -0.097967
v -0.759909 -0.212856 -0.142226
v -0.759909 -0.181019 -0.181019
v -0.759909 -0.142226 -0.212856
v -0.759909 -0.057696 0.983348
v -0.759909 0.113703 0.933393
v -0.759909 0.227969 0.887601
v -0.759909 0.311072 0.833484
v -0.759909 0.383786 0.766877
v -0.759909 0.456501 0.662804
v -0.759909 0.503246 0.567057
v -0.759909 0.534409 0.475474
v -0.759909 -0.049943 0.251081
v -0.759909 -0.097967 0.236513
v -0.759909 -0.142226 0.212856
v -0.759909 -0.181019 0.181019
v -0.759909 -0.212856 0.142226
v -0.759909 -0.236513 0.097967
v -0.759909 -0.251081 0.049943
v 0.533399 -0.097967 -0.236513
v 0.533399 -0.049943 -0.251081
v 0.533399 -0.000000 -0.256000
v 0.533399 0.049943 -0.251081
v 0.533399 0.097967 -0.236513
v 0.533399 0.142226 -0.212856
v 0.533399 0.181019 -0.181020
v 0.533399 0.212856 -0.142226
v 0.533399 0.236513 -0.097967
v 0.533399 0.251081 -0.049943
v 0.533399 0.256000 -0.000000
v 0.533399 0.251081 0.049943
v 0.533399 0.236513 0.097967
v 0.533399 0.212856 0.142226
v 0.533399 0.181019 0.181019
v 0.533399 0.142226 0.212856
v 0.533399 0.097967 0.236513
v 0.533399 0.049943 0.251081
v 0.533399 0.000000 0.256000
v 0.533399 -0.256000 -0.000000
v 0.533399 -0.251081 -0.049943
v 0.533399 -0.236513 -0.097967
v 0.533399 -0.212856 -0.142226
v 0.533399 -0.181019 -0.181019
v 0.533399 -0.142226 -0.212856
v 0.533399 -0.049943 0.251081
v 0.533399 -0.097967 0.236513
v 0.533399 -0.142226 0.212856
v 0.533399 -0.181019 0.181019
v 0.533399 -0.212856 0.142226
v 0.533399 -0.236513 0.097967
v 0.533399 -0.251081 0.049943
v -0.533399 -0.256000 -0.000000
v -0.533399 -0.061485 -0.993153
v -0.533399 0.109914 -0.943198
v -0.533399 0.224180 -0.897406
v -0.533399 0.307282 -0.843289
v -0.533399 0.379997 -0.776682
v -0.533399 0.452712 -0.672609
v -0.533399 0.499457 -0.576862
v -0.533399 0.530620 -0.485278
v -0.533399 0.546202 -0.385369
v -0.533399 0.551396 -0.209805
v -0.533399 0.551396 -0.006544
v -0.533399 0.251081 0.049943
v -0.533399 0.256000 -0.000000
v -0.533399 0.251081 -0.049943
v -0.533399 0.236513 -0.097967
v -0.533399 0.212856 -0.142226
v -0.533399 0.181019 -0.181020
v -0.533399 0.142226 -0.212856
v -0.533399 0.097967 -0.236513
v -0.533399 0.049943 -0.251081
v -0.533399 0.000000 -0.256000
v -0.533399 -0.049943 -0.251081
v -0.533399 -0.097967 -0.236513
v -0.533399 -0.142226 -0.212856
v -0.533399 -0.181019 -0.181019
v -0.533399 -0.212856 -0.142226
v -0.533399 -0.236513 -0.097967
v -0.533399 -0.251081 -0.049943
v -0.533399 -0.251081 0.049943
v -0.533399 -0.236513 0.097967
v -0.533399 -0.212856 0.142226
v -0.533399 -0.181019 0.181019
v -0.533399 -0.142226 0.212856
v -0.533399 -0.097967 0.236513
v -0.533399 -0.049943 0.251081
v -0.533399 0.000000 0.256000
v -0.533399 0.049943 0.251081
v -0.533399 0.097967 0.236513
v -0.533399 0.142226 0.212856
v -0.533399 0.181019 0.181019
v -0.533399 0.212856 0.142226
v -0.533399 0.236513 0.097967
v -0.533399 0.555185 0.200000
v -0.533399 0.549991 0.375564
v -0.533399 0.534409 0.475474
v -0.533399 0.503246 0.567057
v -0.533399 0.456501 0.662804
v -0.533399 0.383786 0.766877
v -0.533399 0.311072 0.833484
v -0.533399 0.227969 0.887601
v -0.533399 0.113703 0.933393
v -0.533399 -0.057696 0.983348
vn 0.000000 0.000000 1.000000
vn 1.000000 0.000000 0.000000
vn 0.000000 -1.000000 0.000000
vn 0.000000 0.946700 0.322100
vn 0.000000 0.898600 0.438700
vn 0.000000 0.819700 0.572700
vn 0.000000 0.675500 0.737400
vn 0.000000 0.545700 0.838000
vn 0.000000 0.372000 0.928200
vn 0.000000 0.279800 0.960100
vn 0.000000 0.084100 0.996500
vn 0.000000 -0.026900 -0.999600
vn 0.000000 0.084100 -0.996500
vn 0.000000 0.279800 -0.960100
vn 0.000000 0.372000 -0.928200
vn 0.000000 0.545700 -0.838000
vn 0.000000 0.675500 -0.737400
vn 0.000000 0.819700 -0.572700
vn 0.000000 0.898600 -0.438700
vn 0.000000 0.946700 -0.322100
vn 0.000000 0.988100 -0.154100
vn 0.000000 0.999600 -0.029600
vn 0.000000 1.000000 0.000000
vn 0.000000 0.999800 -0.018300
vn -0.000000 0.999600 0.029600
vn -0.000000 0.988100 0.154100
vn -1.000000 0.000000 0.000000
vn 0.000000 0.098000 0.995200
vn 0.000000 -0.098000 0.995200
vn 0.000000 0.290300 0.956900
vn 0.000000 -0.290300 0.956900
vn 0.000000 0.471400 0.881900
vn 0.000000 -0.471400 0.881900
vn 0.000000 0.634400 0.773000
vn 0.000000 -0.634400 0.773000
vn 0.000000 0.773000 0.634400
vn 0.000000 -0.773000 0.634400
vn 0.000000 0.881900 0.471400
vn 0.000000 -0.881900 0.471400
vn 0.000000 0.956900 0.290300
vn 0.000000 -0.956900 0.290300
vn 0.000000 0.995200 0.098000
vn 0.000000 -0.995200 0.098000
vn 0.000000 0.995200 -0.098000
vn 0.000000 -0.995200 -0.098000
vn 0.000000 0.956900 -0.290300
vn 0.000000 -0.956900 -0.290300
vn 0.000000 0.881900 -0.471400
vn 0.000000 -0.881900 -0.471400
vn 0.000000 0.773000 -0.634400
vn 0.000000 -0.773000 -0.634400
vn 0.000000 0.634400 -0.773000
vn 0.000000 -0.634400 -0.773000
vn 0.000000 0.471400 -0.881900
vn 0.000000 -0.471400 -0.881900
vn 0.000000 0.290300 -0.956900
vn 0.000000 -0.290300 -0.956900
vn 0.000000 0.098000 -0.995200
vn 0.000000 -0.098000 -0.995200
usemtl Material
s off
f 4//1 1//1 2//1
f 13//2 25//2 26//2
f 42//2 57//2 58//2
f 2//3 60//3 61//3
f 51//4 63//4 64//4
f 52//5 64//5 65//5
f 53//6 65//6 66//6
f 54//7 66//7 67//7
f 55//8 67//8 68//8
f 56//9 68//9 69//9
f 57//10 69//10 70//10
f 58//11 70//11 71//11
f 72//1 73//1 60//1
f 62//12 78//12 79//12
f 6//13 80//13 81//13
f 7//14 81//14 82//14
f 8//15 82//15 83//15
f 9//16 83//16 84//16
f 10//17 84//17 85//17
f 11//18 85//18 86//18
f 12//19 86//19 87//19
f 13//20 87//20 88//20
f 14//21 88//21 89//21
f 15//22 89//22 90//22
f 16//23 90//23 91//23
f 17//24 91//24 92//24
f 49//25 92//25 93//25
f 50//26 93//26 63//26
f 61//1 62//1 4//1
f 100//27 117//27 99//27
f 142//27 75//27 141//27
f 89//27 154//27 90//27
f 72//27 71//27 173//27
f 73//23 72//23 79//23
f 183//2 184//2 199//2
f 228//2 229//2 216//2
f 132//11 75//11 74//11
f 76//13 125//13 180//13
f 133//10 132//10 231//10
f 134//9 133//9 230//9
f 135//8 134//8 229//8
f 136//7 135//7 228//7
f 137//6 136//6 227//6
f 138//5 137//5 226//5
f 139//4 138//4 225//4
f 223//26 113//26 139//26
f 114//25 113//25 223//25
f 190//24 115//24 114//24
f 189//23 116//23 115//23
f 188//22 117//22 116//22
f 187//21 118//21 117//21
f 119//20 118//20 187//20
f 120//19 119//19 186//19
f 121//18 120//18 185//18
f 122//17 121//17 184//17
f 123//16 122//16 183//16
f 124//15 123//15 182//15
f 125//14 124//14 181//14
f 95//28 201//28 200//28
f 96//29 200//29 199//29
f 94//30 202//30 201//30
f 97//31 199//31 198//31
f 131//32 203//32 202//32
f 98//33 198//33 197//33
f 130//34 204//34 203//34
f 99//35 197//35 196//35
f 129//36 205//36 204//36
f 100//37 196//37 195//37
f 128//38 206//38 205//38
f 101//39 195//39 194//39
f 127//40 207//40 206//40
f 102//41 194//41 193//41
f 126//42 179//42 207//42
f 103//43 193//43 192//43
f 146//44 208//44 179//44
f 104//45 192//45 191//45
f 145//46 209//46 208//46
f 105//47 191//47 221//47
f 144//48 210//48 209//48
f 106//49 221//49 220//49
f 143//50 211//50 210//50
f 107//51 220//51 219//51
f 142//52 212//52 211//52
f 108//53 219//53 218//53
f 141//54 213//54 212//54
f 110//55 109//55 218//55
f 140//56 214//56 213//56
f 110//57 217//57 216//57
f 112//58 215//58 214//58
f 111//59 216//59 215//59
f 148//28 29//28 28//28
f 149//29 28//29 27//29
f 147//30 30//30 29//30
f 150//31 27//31 26//31
f 171//32 31//32 30//32
f 151//33 26//33 25//33
f 170//34 32//34 31//34
f 152//35 25//35 24//35
f 169//36 33//36 32//36
f 153//37 24//37 23//37
f 168//38 34//38 33//38
f 154//39 23//39 22//39
f 167//40 35//40 34//40
f 155//41 22//41 21//41
f 166//42 5//42 35//42
f 156//43 21//43 20//43
f 178//44 36//44 5//44
f 157//45 20//45 19//45
f 177//46 37//46 36//46
f 158//47 19//47 18//47
f 176//48 38//48 37//48
f 159//49 18//49 48//49
f 175//50 39//50 38//50
f 160//51 48//51 47//51
f 174//52 40//52 39//52
f 161//53 47//53 46//53
f 173//54 41//54 40//54
f 162//55 46//55 45//55
f 172//56 42//56 41//56
f 163//57 45//57 44//57
f 165//58 43//58 42//58
f 164//59 44//59 43//59
f 3//1 4//1 2//1
f 35//2 5//2 6//2
f 6//2 7//2 30//2
f 8//2 9//2 28//2
f 10//2 11//2 27//2
f 12//2 13//2 26//2
f 14//2 25//2 13//2
f 16//2 17//2 21//2
f 34//2 35//2 6//2
f 17//2 18//2 19//2
f 33//2 34//2 6//2
f 17//2 19//2 20//2
f 32//2 33//2 6//2
f 17//2 20//2 21//2
f 31//2 32//2 6//2
f 16//2 21//2 22//2
f 30//2 31//2 6//2
f 16//2 22//2 23//2
f 29//2 30//2 7//2
f 16//2 23//2 15//2
f 28//2 29//2 8//2
f 23//2 24//2 15//2
f 27//2 28//2 9//2
f 24//2 25//2 15//2
f 26//2 27//2 12//2
f 7//2 8//2 29//2
f 11//2 12//2 27//2
f 15//2 25//2 14//2
f 27//2 9//2 10//2
f 48//2 18//2 49//2
f 4//2 6//2 5//2
f 47//2 48//2 50//2
f 4//2 5//2 2//2
f 46//2 47//2 50//2
f 5//2 36//2 2//2
f 18//2 17//2 49//2
f 2//1 1//1 4//1
f 45//2 46//2 52//2
f 2//2 36//2 37//2
f 44//2 45//2 54//2
f 2//2 37//2 38//2
f 48//2 49//2 50//2
f 2//2 38//2 39//2
f 43//2 44//2 56//2
f 2//2 39//2 40//2
f 42//2 43//2 57//2
f 2//2 40//2 59//2
f 46//2 50//2 51//2
f 40//2 41//2 59//2
f 58//2 41//2 42//2
f 56//2 57//2 43//2
f 54//2 55//2 44//2
f 52//2 53//2 45//2
f 46//2 51//2 52//2
f 59//2 41//2 58//2
f 55//2 56//2 44//2
f 45//2 53//2 54//2
f 3//3 2//3 61//3
f 52//4 51//4 64//4
f 53//5 52//5 65//5
f 54//6 53//6 66//6
f 55//7 54//7 67//7
f 56//8 55//8 68//8
f 57//9 56//9 69//9
f 58//10 57//10 70//10
f 59//11 58//11 71//11
f 2//1 59//1 72//1
f 74//1 75//1 73//1
f 59//1 71//1 72//1
f 73//1 75//1 60//1
f 60//1 2//1 72//1
f 80//12 6//12 79//12
f 62//12 76//12 78//12
f 79//12 6//12 4//12
f 76//12 77//12 78//12
f 79//12 4//12 62//12
f 7//13 6//13 81//13
f 8//14 7//14 82//14
f 9//15 8//15 83//15
f 10//16 9//16 84//16
f 11//17 10//17 85//17
f 12//18 11//18 86//18
f 13//19 12//19 87//19
f 14//20 13//20 88//20
f 15//21 14//21 89//21
f 16//22 15//22 90//22
f 17//23 16//23 91//23
f 49//24 17//24 92//24
f 50//25 49//25 93//25
f 51//26 50//26 63//26
f 3//1 61//1 4//1
f 62//27 94//27 76//27
f 111//27 112//27 113//27
f 94//27 125//27 76//27
f 110//27 111//27 113//27
f 95//27 125//27 94//27
f 109//27 110//27 113//27
f 124//27 125//27 95//27
f 108//27 109//27 113//27
f 124//27 95//27 96//27
f 107//27 108//27 113//27
f 124//27 96//27 123//27
f 106//27 107//27 114//27
f 123//27 96//27 97//27
f 105//27 106//27 114//27
f 123//27 97//27 122//27
f 104//27 105//27 115//27
f 122//27 97//27 121//27
f 103//27 104//27 115//27
f 97//27 98//27 120//27
f 102//27 103//27 116//27
f 113//27 114//27 107//27
f 115//27 116//27 103//27
f 117//27 100//27 101//27
f 99//27 117//27 118//27
f 121//27 97//27 120//27
f 119//27 120//27 98//27
f 119//27 99//27 118//27
f 114//27 115//27 105//27
f 117//27 101//27 116//27
f 99//27 119//27 98//27
f 102//27 116//27 101//27
f 131//27 94//27 62//27
f 113//27 112//27 139//27
f 130//27 131//27 62//27
f 139//27 112//27 138//27
f 129//27 130//27 62//27
f 112//27 137//27 138//27
f 128//27 129//27 62//27
f 112//27 136//27 137//27
f 127//27 128//27 62//27
f 135//27 136//27 112//27
f 126//27 127//27 62//27
f 134//27 135//27 112//27
f 146//27 126//27 62//27
f 133//27 134//27 112//27
f 145//27 146//27 62//27
f 133//27 112//27 140//27
f 145//1 62//1 61//1
f 132//27 133//27 140//27
f 145//27 61//27 60//27
f 132//27 140//27 141//27
f 144//27 145//27 60//27
f 60//27 143//27 144//27
f 142//27 60//27 75//27
f 75//27 132//27 141//27
f 60//27 142//27 143//27
f 80//27 147//27 81//27
f 164//27 165//27 93//27
f 147//27 148//27 81//27
f 163//27 164//27 93//27
f 148//27 82//27 81//27
f 162//27 163//27 93//27
f 149//27 82//27 148//27
f 161//27 162//27 93//27
f 83//27 82//27 149//27
f 160//27 161//27 93//27
f 83//27 149//27 150//27
f 159//27 160//27 92//27
f 83//27 150//27 84//27
f 158//27 159//27 92//27
f 84//27 150//27 85//27
f 157//27 158//27 91//27
f 150//27 151//27 86//27
f 156//27 157//27 91//27
f 86//27 151//27 87//27
f 155//27 156//27 90//27
f 93//27 92//27 160//27
f 91//27 90//27 156//27
f 89//27 153//27 154//27
f 152//27 89//27 88//27
f 85//27 150//27 86//27
f 87//27 151//27 152//27
f 158//27 92//27 91//27
f 90//27 154//27 155//27
f 153//27 89//27 152//27
f 87//27 152//27 88//27
f 171//27 147//27 79//27
f 93//27 165//27 63//27
f 170//27 171//27 79//27
f 63//27 165//27 64//27
f 169//27 170//27 79//27
f 165//27 65//27 64//27
f 168//27 169//27 79//27
f 165//27 66//27 65//27
f 167//27 168//27 79//27
f 67//27 66//27 165//27
f 166//27 167//27 79//27
f 68//27 67//27 165//27
f 147//27 80//27 79//27
f 69//27 68//27 165//27
f 166//27 79//27 72//27
f 69//27 165//27 172//27
f 178//27 166//27 72//27
f 70//27 69//27 172//27
f 177//27 178//27 72//27
f 70//27 172//27 173//27
f 176//27 177//27 72//27
f 72//27 175//27 176//27
f 174//27 72//27 173//27
f 71//27 70//27 173//27
f 72//27 174//27 175//27
f 78//23 73//23 79//23
f 179//2 73//2 78//2
f 190//2 191//2 192//2
f 207//2 179//2 78//2
f 190//2 192//2 193//2
f 206//2 207//2 78//2
f 190//2 193//2 189//2
f 205//2 206//2 78//2
f 193//2 194//2 189//2
f 204//2 205//2 78//2
f 194//2 195//2 189//2
f 203//2 204//2 78//2
f 195//2 188//2 189//2
f 202//2 203//2 78//2
f 196//2 188//2 195//2
f 201//2 202//2 180//2
f 196//2 197//2 188//2
f 200//2 201//2 181//2
f 197//2 187//2 188//2
f 199//2 200//2 182//2
f 78//2 77//2 202//2
f 180//2 181//2 201//2
f 182//2 183//2 199//2
f 184//2 185//2 199//2
f 186//2 197//2 198//2
f 197//2 186//2 187//2
f 202//2 77//2 180//2
f 181//2 182//2 200//2
f 185//2 198//2 199//2
f 198//2 185//2 186//2
f 73//2 179//2 208//2
f 221//2 191//2 222//2
f 73//2 208//2 209//2
f 220//2 221//2 222//2
f 73//2 209//2 210//2
f 219//2 220//2 223//2
f 73//2 210//2 211//2
f 218//2 219//2 223//2
f 73//2 211//2 212//2
f 191//2 190//2 222//2
f 73//2 212//2 213//2
f 217//2 218//2 225//2
f 73//2 213//2 74//2
f 216//2 217//2 227//2
f 213//2 231//2 74//2
f 220//2 222//2 223//2
f 214//2 231//2 213//2
f 214//2 215//2 230//2
f 229//2 215//2 216//2
f 227//2 228//2 216//2
f 225//2 226//2 217//2
f 223//2 224//2 218//2
f 230//2 231//2 214//2
f 230//2 215//2 229//2
f 226//2 227//2 217//2
f 218//2 224//2 225//2
f 231//11 132//11 74//11
f 77//13 76//13 180//13
f 230//10 133//10 231//10
f 229//9 134//9 230//9
f 228//8 135//8 229//8
f 227//7 136//7 228//7
f 226//6 137//6 227//6
f 225//5 138//5 226//5
f 224//4 139//4 225//4
f 224//26 223//26 139//26
f 222//25 114//25 223//25
f 222//24 190//24 114//24
f 190//23 189//23 115//23
f 189//22 188//22 116//22
f 188//21 187//21 117//21
f 186//20 119//20 187//20
f 185//19 120//19 186//19
f 184//18 121//18 185//18
f 183//17 122//17 184//17
f 182//16 123//16 183//16
f 181//15 124//15 182//15
f 180//14 125//14 181//14
f 96//28 95//28 200//28
f 97//29 96//29 199//29
f 95//30 94//30 201//30
f 98//31 97//31 198//31
f 94//32 131//32 202//32
f 99//33 98//33 197//33
f 131//34 130//34 203//34
f 100//35 99//35 196//35
f 130//36 129//36 204//36
f 101//37 100//37 195//37
f 129//38 128//38 205//38
f 102//39 101//39 194//39
f 128//40 127//40 206//40
f 103//41 102//41 193//41
f 127//42 126//42 207//42
f 104//43 103//43 192//43
f 126//44 146//44 179//44
f 105//45 104//45 191//45
f 146//46 145//46 208//46
f 106//47 105//47 221//47
f 145//48 144//48 209//48
f 107//49 106//49 220//49
f 144//50 143//50 210//50
f 108//51 107//51 219//51
f 143//52 142//52 211//52
f 109//53 108//53 218//53
f 142//54 141//54 212//54
f 217//55 110//55 218//55
f 141//56 140//56 213//56
f 111//57 110//57 216//57
f 140//58 112//58 214//58
f 112//59 111//59 215//59
f 149//28 148//28 28//28
f 150//29 149//29 27//29
f 148//30 147//30 29//30
f 151//31 150//31 26//31
f 147//32 171//32 30//32
f 152//33 151//33 25//33
f 171//34 170//34 31//34
f 153//35 152//35 24//35
f 170//36 169//36 32//36
f 154//37 153//37 23//37
f 169//38 168//38 33//38
f 155//39 154//39 22//39
f 168//40 167//40 34//40
f 156//41 155//41 21//41
f 167//42 166//42 35//42
f 157//43 156//43 20//43
f 166//44 178//44 5//44
f 158//45 157//45 19//45
f 178//46 177//46 36//46
f 159//47 158//47 18//47
f 177//48 176//48 37//48
f 160//49 159//49 48//49
f 176//50 175//50 38//50
f 161//51 160//51 47//51
f 175//52 174//52 39//52
f 162//53 161//53 46//53
f 174//54 173//54 40//54
f 163//55 162//55 45//55
f 173//56 172//56 41//56
f 164//57 163//57 44//57
f 172//58 165//58 42//58
f 165//59 164//59 43//59
