# Blender v2.76 (sub 0) OBJ File: 'joint2p1.blend'
# www.blender.org
mtllib joint2p1.mtl
o Cylinder.001
v 0.000000 0.500000 -0.474904
v 0.000000 0.547289 -0.474904
v 0.092649 0.547289 -0.465779
v 0.092649 0.500000 -0.465779
v -0.092649 0.500000 -0.465779
v -0.092649 0.547289 -0.465779
v -0.181737 0.547289 -0.438755
v -0.263842 0.547289 -0.394869
v -0.335808 0.547289 -0.335809
v -0.394868 0.547289 -0.263843
v -0.438754 0.547289 -0.181739
v -0.465779 0.547289 -0.092650
v -0.474904 0.547289 -0.000000
v -0.465779 0.547289 0.092649
v -0.438755 0.547289 0.181738
v -0.394869 0.547289 0.263843
v -0.335808 0.547289 0.335808
v -0.263843 0.547289 0.394868
v -0.181738 0.547289 0.438754
v -0.092649 0.547289 0.465779
v -0.000000 0.547289 0.474904
v 0.092649 0.547289 0.465779
v 0.181738 0.547289 0.438755
v 0.263843 0.547289 0.394869
v 0.335808 0.547289 0.335808
v 0.394869 0.547289 0.263843
v 0.438755 0.547289 0.181738
v 0.465779 0.547289 0.092649
v 0.474904 0.547289 -0.000000
v 0.465779 0.547289 -0.092649
v 0.438754 0.547289 -0.181738
v 0.394869 0.547289 -0.263843
v 0.335808 0.547289 -0.335808
v 0.263843 0.547289 -0.394869
v 0.181738 0.547289 -0.438754
v 0.181738 0.500000 -0.438754
v -0.181737 0.500000 -0.438755
v -0.263842 0.500000 -0.394869
v -0.335808 0.500000 -0.335809
v -0.394868 0.500000 -0.263843
v -0.438754 0.500000 -0.181739
v -0.465779 0.500000 -0.092650
v -0.474904 0.500000 -0.000000
v -0.465779 0.500000 0.092649
v -0.438755 0.500000 0.181738
v -0.394869 0.500000 0.263843
v -0.335808 0.500000 0.335808
v -0.263843 0.500000 0.394868
v -0.181738 0.500000 0.438754
v -0.092649 0.500000 0.465779
v -0.000000 0.500000 0.474904
v 0.092649 0.500000 0.465779
v 0.181738 0.500000 0.438755
v 0.263843 0.500000 0.394869
v 0.335808 0.500000 0.335808
v 0.394869 0.500000 0.263843
v 0.438755 0.500000 0.181738
v 0.465779 0.500000 0.092649
v 0.474904 0.500000 -0.000000
v 0.465779 0.500000 -0.092649
v 0.438754 0.500000 -0.181738
v 0.394869 0.500000 -0.263843
v 0.335808 0.500000 -0.335808
v 0.263843 0.500000 -0.394869
v 0.000000 0.000000 -0.800000
v 0.000000 0.500000 -0.800000
v 0.156072 0.500000 -0.784628
v 0.156072 0.000000 -0.784628
v 0.306147 0.000000 -0.739104
v 0.444456 0.000000 -0.665176
v 0.565685 0.000000 -0.565685
v 0.665176 0.000000 -0.444456
v 0.739104 0.000000 -0.306147
v 0.784628 0.000000 -0.156072
v 0.800000 0.000000 -0.000000
v 0.784628 0.000000 0.156072
v 0.739104 0.000000 0.306147
v 0.665176 0.000000 0.444456
v 0.565685 0.000000 0.565685
v 0.444456 0.000000 0.665176
v 0.306147 0.000000 0.739104
v 0.156072 0.000000 0.784628
v -0.000000 0.000000 0.800000
v -0.156073 0.000000 0.784628
v -0.306147 0.000000 0.739104
v -0.444457 0.000000 0.665175
v -0.565686 0.000000 0.565685
v -0.665176 0.000000 0.444456
v -0.739104 0.000000 0.306146
v -0.784628 0.000000 0.156072
v -0.800000 0.000000 -0.000001
v -0.784628 0.000000 -0.156073
v -0.739103 0.000000 -0.306148
v -0.665175 0.000000 -0.444457
v -0.565685 0.000000 -0.565686
v -0.444455 0.000000 -0.665176
v -0.306146 0.000000 -0.739104
v -0.156071 0.000000 -0.784628
v -0.004344 0.000000 -0.844106
v -0.004344 0.500000 -0.844106
v -0.000000 0.500000 0.800000
v -0.156071 0.500000 -0.784628
v -0.306146 0.500000 -0.739104
v -0.444455 0.500000 -0.665176
v -0.565685 0.500000 -0.565686
v -0.665175 0.500000 -0.444457
v -0.739103 0.500000 -0.306148
v -0.784628 0.500000 -0.156073
v -0.800000 0.500000 -0.000001
v -0.784628 0.500000 0.156072
v -0.739104 0.500000 0.306146
v -0.665176 0.500000 0.444456
v -0.565686 0.500000 0.565685
v -0.444457 0.500000 0.665175
v -0.306147 0.500000 0.739104
v -0.156073 0.500000 0.784628
v 0.156072 0.500000 0.784628
v 0.306147 0.500000 0.739104
v 0.444456 0.500000 0.665176
v 0.565685 0.500000 0.565685
v 0.665176 0.500000 0.444456
v 0.739104 0.500000 0.306147
v 0.784628 0.500000 0.156072
v 0.800000 0.500000 -0.000000
v 0.784628 0.500000 -0.156072
v 0.739104 0.500000 -0.306147
v 0.665176 0.500000 -0.444456
v 0.565685 0.500000 -0.565685
v 0.444456 0.500000 -0.665176
v 0.306147 0.500000 -0.739104
v 0.168938 0.500000 -0.827039
v 0.168938 0.000000 -0.827039
v -0.160415 0.000000 -0.828735
v 0.319012 0.000000 -0.781515
v 0.472572 0.000000 -0.699435
v 0.593801 0.000000 -0.599945
v 0.704262 0.000000 -0.465348
v 0.778190 0.000000 -0.327039
v 0.828734 0.000000 -0.160416
v 0.844106 0.000000 -0.004344
v 0.827039 0.000000 0.168937
v 0.781515 0.000000 0.319012
v 0.699435 0.000000 0.472572
v 0.599945 0.000000 0.593801
v 0.465348 0.000000 0.704262
v 0.327039 0.000000 0.778190
v 0.160416 0.000000 0.828734
v 0.004344 0.000000 0.844106
v -0.168938 0.000000 0.827039
v -0.319012 0.000000 0.781515
v -0.472573 0.000000 0.699435
v -0.593802 0.000000 0.599944
v -0.704262 0.000000 0.465348
v -0.778190 0.000000 0.327038
v -0.828734 0.000000 0.160416
v -0.844106 0.000000 0.004343
v -0.827039 0.000000 -0.168938
v -0.781514 0.000000 -0.319013
v -0.699435 0.000000 -0.472573
v -0.599944 0.000000 -0.593802
v -0.465347 0.000000 -0.704263
v -0.327038 0.000000 -0.778190
v -0.160415 0.500000 -0.828735
v 0.319012 0.500000 -0.781515
v -0.327038 0.500000 -0.778190
v -0.465347 0.500000 -0.704263
v -0.599944 0.500000 -0.593802
v -0.699435 0.500000 -0.472573
v -0.781514 0.500000 -0.319013
v -0.827039 0.500000 -0.168938
v -0.844106 0.500000 0.004343
v -0.828734 0.500000 0.160416
v -0.778190 0.500000 0.327038
v -0.704262 0.500000 0.465348
v -0.593802 0.500000 0.599944
v -0.472573 0.500000 0.699435
v -0.319012 0.500000 0.781515
v -0.168938 0.500000 0.827039
v 0.004344 0.500000 0.844106
v 0.160416 0.500000 0.828734
v 0.327039 0.500000 0.778190
v 0.465348 0.500000 0.704262
v 0.599945 0.500000 0.593801
v 0.699435 0.500000 0.472572
v 0.781515 0.500000 0.319012
v 0.827039 0.500000 0.168937
v 0.844106 0.500000 -0.004344
v 0.828734 0.500000 -0.160416
v 0.778190 0.500000 -0.327039
v 0.704262 0.500000 -0.465348
v 0.593801 0.500000 -0.599945
v 0.472572 0.500000 -0.699435
vn 0.098000 0.000000 -0.995200
vn -0.098000 0.000000 -0.995200
vn 0.000000 1.000000 0.000000
vn 0.290300 0.000000 -0.956900
vn -0.290300 0.000000 -0.956900
vn -0.471400 0.000000 -0.881900
vn -0.634400 0.000000 -0.773000
vn -0.773000 0.000000 -0.634400
vn -0.881900 0.000000 -0.471400
vn -0.956900 0.000000 -0.290300
vn -0.995200 0.000000 -0.098000
vn -0.995200 0.000000 0.098000
vn -0.956900 0.000000 0.290300
vn -0.881900 0.000000 0.471400
vn -0.773000 0.000000 0.634400
vn -0.634400 0.000000 0.773000
vn -0.471400 0.000000 0.881900
vn -0.290300 0.000000 0.956900
vn -0.098000 0.000000 0.995200
vn 0.098000 0.000000 0.995200
vn 0.290300 0.000000 0.956900
vn 0.471400 0.000000 0.881900
vn 0.634400 0.000000 0.773000
vn 0.773000 0.000000 0.634400
vn 0.881900 0.000000 0.471400
vn 0.956900 0.000000 0.290300
vn 0.995200 0.000000 0.098000
vn 0.995200 0.000000 -0.098000
vn 0.956900 0.000000 -0.290300
vn 0.881900 0.000000 -0.471400
vn 0.773000 0.000000 -0.634400
vn 0.634400 0.000000 -0.773000
vn 0.471400 0.000000 -0.881900
vn 0.000000 -1.000000 0.000000
usemtl None
s off
f 2//1 3//1 4//1
f 6//2 2//2 1//2
f 19//3 27//3 35//3
f 3//4 35//4 36//4
f 7//5 6//5 5//5
f 8//6 7//6 37//6
f 9//7 8//7 38//7
f 10//8 9//8 39//8
f 11//9 10//9 40//9
f 12//10 11//10 41//10
f 13//11 12//11 42//11
f 14//12 13//12 43//12
f 15//13 14//13 44//13
f 16//14 15//14 45//14
f 17//15 16//15 46//15
f 18//16 17//16 47//16
f 19//17 18//17 48//17
f 20//18 19//18 49//18
f 21//19 20//19 50//19
f 22//20 21//20 51//20
f 23//21 22//21 52//21
f 24//22 23//22 53//22
f 25//23 24//23 54//23
f 26//24 25//24 55//24
f 27//25 26//25 56//25
f 28//26 27//26 57//26
f 29//27 28//27 58//27
f 30//28 29//28 59//28
f 31//29 30//29 60//29
f 32//30 31//30 61//30
f 33//31 32//31 62//31
f 34//32 33//32 63//32
f 35//33 34//33 64//33
f 66//1 67//1 68//1
f 82//34 94//34 98//34
f 99//28 100//28 66//28
f 43//3 110//3 44//3
f 59//3 124//3 125//3
f 131//10 132//10 68//10
f 133//34 99//34 65//34
f 132//34 134//34 69//34
f 130//33 129//33 70//33
f 135//34 136//34 71//34
f 128//31 127//31 72//31
f 72//34 137//34 138//34
f 126//29 125//29 74//29
f 74//34 139//34 140//34
f 124//27 123//27 76//27
f 141//34 142//34 77//34
f 122//25 121//25 78//25
f 143//34 144//34 79//34
f 120//23 119//23 80//23
f 80//34 145//34 146//34
f 118//21 117//21 82//21
f 82//34 147//34 148//34
f 101//19 116//19 84//19
f 149//34 150//34 85//34
f 115//17 114//17 86//17
f 151//34 152//34 87//34
f 113//15 112//15 88//15
f 153//34 154//34 89//34
f 111//13 110//13 90//13
f 155//34 156//34 91//34
f 109//11 108//11 92//11
f 157//34 158//34 93//34
f 107//9 106//9 94//9
f 159//34 160//34 95//34
f 105//7 104//7 96//7
f 96//34 161//34 162//34
f 103//5 102//5 98//5
f 163//2 100//2 99//2
f 100//3 163//3 102//3
f 130//3 164//3 131//3
f 165//3 166//3 104//3
f 105//3 167//3 168//3
f 169//3 170//3 108//3
f 109//3 171//3 172//3
f 173//3 174//3 112//3
f 113//3 175//3 176//3
f 115//3 177//3 178//3
f 179//3 180//3 117//3
f 181//3 182//3 119//3
f 183//3 184//3 121//3
f 185//3 186//3 123//3
f 187//3 188//3 125//3
f 189//3 190//3 127//3
f 128//3 191//3 192//3
f 131//4 164//4 134//4
f 163//12 133//12 98//12
f 134//26 164//26 130//26
f 192//8 135//8 70//8
f 192//32 191//32 136//32
f 136//24 191//24 128//24
f 190//6 137//6 72//6
f 190//30 189//30 138//30
f 138//22 189//22 126//22
f 188//2 139//2 74//2
f 188//28 187//28 140//28
f 140//20 187//20 124//20
f 186//4 141//4 76//4
f 186//26 185//26 142//26
f 142//18 185//18 122//18
f 184//32 143//32 78//32
f 184//24 183//24 144//24
f 144//16 183//16 120//16
f 182//30 145//30 80//30
f 182//22 181//22 146//22
f 146//14 181//14 118//14
f 180//28 147//28 82//28
f 180//20 179//20 148//20
f 148//12 179//12 101//12
f 178//26 149//26 84//26
f 178//18 177//18 150//18
f 150//10 177//10 115//10
f 176//24 151//24 86//24
f 176//16 175//16 152//16
f 152//8 175//8 113//8
f 174//22 153//22 88//22
f 174//14 173//14 154//14
f 154//6 173//6 111//6
f 172//20 155//20 90//20
f 172//12 171//12 156//12
f 156//2 171//2 109//2
f 170//18 157//18 92//18
f 170//10 169//10 158//10
f 158//4 169//4 107//4
f 168//16 159//16 94//16
f 168//8 167//8 160//8
f 160//32 167//32 105//32
f 166//14 161//14 96//14
f 166//6 165//6 162//6
f 162//30 165//30 103//30
f 1//1 2//1 4//1
f 5//2 6//2 1//2
f 35//3 3//3 7//3
f 2//3 6//3 7//3
f 7//3 8//3 9//3
f 9//3 10//3 7//3
f 11//3 12//3 15//3
f 13//3 14//3 15//3
f 15//3 16//3 17//3
f 17//3 18//3 15//3
f 19//3 20//3 21//3
f 21//3 22//3 23//3
f 23//3 24//3 25//3
f 25//3 26//3 27//3
f 27//3 28//3 29//3
f 29//3 30//3 27//3
f 31//3 32//3 33//3
f 33//3 34//3 35//3
f 3//3 2//3 7//3
f 7//3 10//3 11//3
f 12//3 13//3 15//3
f 15//3 18//3 19//3
f 19//3 21//3 27//3
f 23//3 25//3 27//3
f 27//3 30//3 31//3
f 31//3 33//3 35//3
f 35//3 7//3 11//3
f 11//3 15//3 35//3
f 21//3 23//3 27//3
f 27//3 31//3 35//3
f 35//3 15//3 19//3
f 4//4 3//4 36//4
f 37//5 7//5 5//5
f 38//6 8//6 37//6
f 39//7 9//7 38//7
f 40//8 10//8 39//8
f 41//9 11//9 40//9
f 42//10 12//10 41//10
f 43//11 13//11 42//11
f 44//12 14//12 43//12
f 45//13 15//13 44//13
f 46//14 16//14 45//14
f 47//15 17//15 46//15
f 48//16 18//16 47//16
f 49//17 19//17 48//17
f 50//18 20//18 49//18
f 51//19 21//19 50//19
f 52//20 22//20 51//20
f 53//21 23//21 52//21
f 54//22 24//22 53//22
f 55//23 25//23 54//23
f 56//24 26//24 55//24
f 57//25 27//25 56//25
f 58//26 28//26 57//26
f 59//27 29//27 58//27
f 60//28 30//28 59//28
f 61//29 31//29 60//29
f 62//30 32//30 61//30
f 63//31 33//31 62//31
f 64//32 34//32 63//32
f 36//33 35//33 64//33
f 65//1 66//1 68//1
f 98//34 65//34 68//34
f 68//34 69//34 70//34
f 70//34 71//34 72//34
f 72//34 73//34 74//34
f 74//34 75//34 78//34
f 76//34 77//34 78//34
f 78//34 79//34 80//34
f 80//34 81//34 82//34
f 82//34 83//34 84//34
f 84//34 85//34 86//34
f 86//34 87//34 88//34
f 88//34 89//34 90//34
f 90//34 91//34 92//34
f 92//34 93//34 90//34
f 94//34 95//34 96//34
f 96//34 97//34 98//34
f 98//34 68//34 70//34
f 70//34 72//34 98//34
f 75//34 76//34 78//34
f 78//34 80//34 74//34
f 82//34 84//34 86//34
f 86//34 88//34 90//34
f 90//34 93//34 94//34
f 94//34 96//34 98//34
f 98//34 72//34 74//34
f 74//34 80//34 82//34
f 82//34 86//34 90//34
f 90//34 94//34 82//34
f 98//34 74//34 82//34
f 65//28 99//28 66//28
f 116//3 101//3 51//3
f 1//3 4//3 102//3
f 116//3 51//3 50//3
f 5//3 1//3 102//3
f 116//3 50//3 49//3
f 37//3 5//3 102//3
f 116//3 49//3 115//3
f 38//3 37//3 103//3
f 49//3 48//3 115//3
f 39//3 38//3 104//3
f 48//3 114//3 115//3
f 40//3 39//3 105//3
f 47//3 114//3 48//3
f 41//3 40//3 106//3
f 47//3 113//3 114//3
f 37//3 102//3 103//3
f 46//3 113//3 47//3
f 42//3 41//3 107//3
f 46//3 112//3 113//3
f 38//3 103//3 104//3
f 45//3 112//3 46//3
f 43//3 42//3 108//3
f 104//3 105//3 39//3
f 106//3 107//3 41//3
f 108//3 109//3 43//3
f 110//3 111//3 44//3
f 112//3 45//3 111//3
f 40//3 105//3 106//3
f 45//3 44//3 111//3
f 109//3 110//3 43//3
f 42//3 107//3 108//3
f 67//3 66//3 4//3
f 102//3 4//3 66//3
f 52//3 51//3 101//3
f 4//3 36//3 67//3
f 53//3 52//3 117//3
f 36//3 130//3 67//3
f 54//3 53//3 118//3
f 36//3 64//3 130//3
f 55//3 54//3 119//3
f 64//3 129//3 130//3
f 56//3 55//3 120//3
f 63//3 129//3 64//3
f 52//3 101//3 117//3
f 63//3 128//3 129//3
f 57//3 56//3 121//3
f 62//3 128//3 63//3
f 53//3 117//3 118//3
f 62//3 127//3 128//3
f 58//3 57//3 122//3
f 61//3 127//3 62//3
f 54//3 118//3 119//3
f 61//3 126//3 127//3
f 59//3 58//3 123//3
f 119//3 120//3 55//3
f 121//3 122//3 57//3
f 123//3 124//3 59//3
f 125//3 60//3 59//3
f 61//3 60//3 126//3
f 56//3 120//3 121//3
f 122//3 123//3 58//3
f 126//3 60//3 125//3
f 67//10 131//10 68//10
f 98//34 133//34 65//34
f 68//34 132//34 69//34
f 69//33 130//33 70//33
f 70//34 135//34 71//34
f 71//31 128//31 72//31
f 73//34 72//34 138//34
f 73//29 126//29 74//29
f 75//34 74//34 140//34
f 75//27 124//27 76//27
f 76//34 141//34 77//34
f 77//25 122//25 78//25
f 78//34 143//34 79//34
f 79//23 120//23 80//23
f 81//34 80//34 146//34
f 81//21 118//21 82//21
f 83//34 82//34 148//34
f 83//19 101//19 84//19
f 84//34 149//34 85//34
f 85//17 115//17 86//17
f 86//34 151//34 87//34
f 87//15 113//15 88//15
f 88//34 153//34 89//34
f 89//13 111//13 90//13
f 90//34 155//34 91//34
f 91//11 109//11 92//11
f 92//34 157//34 93//34
f 93//9 107//9 94//9
f 94//34 159//34 95//34
f 95//7 105//7 96//7
f 97//34 96//34 162//34
f 97//5 103//5 98//5
f 133//2 163//2 99//2
f 66//3 100//3 102//3
f 67//3 130//3 131//3
f 103//3 165//3 104//3
f 106//3 105//3 168//3
f 107//3 169//3 108//3
f 110//3 109//3 172//3
f 111//3 173//3 112//3
f 114//3 113//3 176//3
f 116//3 115//3 178//3
f 101//3 179//3 117//3
f 118//3 181//3 119//3
f 120//3 183//3 121//3
f 122//3 185//3 123//3
f 124//3 187//3 125//3
f 126//3 189//3 127//3
f 129//3 128//3 192//3
f 132//4 131//4 134//4
f 102//12 163//12 98//12
f 69//26 134//26 130//26
f 129//8 192//8 70//8
f 135//32 192//32 136//32
f 71//24 136//24 128//24
f 127//6 190//6 72//6
f 137//30 190//30 138//30
f 73//22 138//22 126//22
f 125//2 188//2 74//2
f 139//28 188//28 140//28
f 75//20 140//20 124//20
f 123//4 186//4 76//4
f 141//26 186//26 142//26
f 77//18 142//18 122//18
f 121//32 184//32 78//32
f 143//24 184//24 144//24
f 79//16 144//16 120//16
f 119//30 182//30 80//30
f 145//22 182//22 146//22
f 81//14 146//14 118//14
f 117//28 180//28 82//28
f 147//20 180//20 148//20
f 83//12 148//12 101//12
f 116//26 178//26 84//26
f 149//18 178//18 150//18
f 85//10 150//10 115//10
f 114//24 176//24 86//24
f 151//16 176//16 152//16
f 87//8 152//8 113//8
f 112//22 174//22 88//22
f 153//14 174//14 154//14
f 89//6 154//6 111//6
f 110//20 172//20 90//20
f 155//12 172//12 156//12
f 91//2 156//2 109//2
f 108//18 170//18 92//18
f 157//10 170//10 158//10
f 93//4 158//4 107//4
f 106//16 168//16 94//16
f 159//8 168//8 160//8
f 95//32 160//32 105//32
f 104//14 166//14 96//14
f 161//6 166//6 162//6
f 97//30 162//30 103//30
