# Blender v2.76 (sub 0) OBJ File: 'tip.blend'
# www.blender.org
mtllib tip.mtl
o Plane.002
v 0.251854 0.274602 0.000115
v 0.565571 0.274602 0.181240
v 0.565571 0.779785 0.181240
v 0.829378 1.208060 0.333549
v 0.376595 1.833535 0.164370
v 0.306383 1.779944 0.123833
v 0.562959 1.253300 0.179732
v 0.249525 0.788833 -0.001229
v 0.251854 0.788833 0.000115
v 0.105125 0.274602 0.254258
v 0.418842 0.274602 0.435382
v 0.418842 0.779785 0.435382
v 0.682649 1.208060 0.587691
v 0.309744 1.833535 0.280160
v 0.239532 1.779944 0.239623
v 0.416230 1.253300 0.433874
v 0.102796 0.788833 0.252913
v 0.105125 0.788833 0.254258
vn 0.500000 -0.000000 -0.866000
vn -0.500000 0.000000 0.866000
vn 0.705700 -0.579600 0.407400
vn -0.683100 0.614600 -0.394400
vn 0.688800 0.606200 0.397700
vn 0.000000 -1.000000 0.000000
vn -0.477600 0.834200 -0.275700
vn 0.866000 0.000000 0.500000
vn -0.866000 -0.005200 -0.500000
vn -0.782300 -0.429000 -0.451600
vn 0.429800 0.114300 -0.895600
vn 0.512900 0.142300 -0.846600
vn -0.476700 0.142300 0.867500
vn -0.560700 0.114300 0.820100
usemtl None
s off
f 8//1 7//1 3//1
f 13//2 16//2 12//2
f 4//3 13//3 12//3
f 8//4 17//4 16//4
f 5//5 14//5 13//5
f 2//6 11//6 10//6
f 9//6 18//6 17//6
f 5//7 6//7 15//7
f 3//8 12//8 11//8
f 1//9 10//9 17//9
f 7//10 16//10 15//10
f 3//1 2//1 1//1
f 1//1 8//1 3//1
f 7//11 6//11 5//11
f 4//1 3//1 7//1
f 7//12 5//12 4//12
f 10//2 11//2 12//2
f 13//13 14//13 16//13
f 10//2 12//2 17//2
f 16//2 17//2 12//2
f 14//14 15//14 16//14
f 3//3 4//3 12//3
f 7//4 8//4 16//4
f 4//5 5//5 13//5
f 1//6 2//6 10//6
f 8//6 9//6 17//6
f 14//7 5//7 15//7
f 2//8 3//8 11//8
f 8//9 1//9 17//9
f 6//10 7//10 15//10
o Plane.001
v -0.089038 0.274602 0.251888
v -0.402755 0.274602 0.433013
v -0.402755 0.779785 0.433013
v -0.666562 1.208060 0.585322
v -0.293659 1.833558 0.277857
v -0.223387 1.779921 0.237285
v -0.400143 1.253300 0.431505
v -0.086709 0.788833 0.250543
v -0.089038 0.788833 0.251888
v -0.235768 0.274602 -0.002254
v -0.549484 0.274602 0.178870
v -0.549484 0.779785 0.178870
v -0.813291 1.208060 0.331179
v -0.360568 1.833558 0.161968
v -0.290296 1.779921 0.121396
v -0.546873 1.253300 0.177362
v -0.233438 0.788833 -0.003599
v -0.235768 0.788833 -0.002254
vn 0.500000 -0.000000 0.866000
vn -0.500000 0.000000 -0.866000
vn -0.705700 -0.579600 0.407400
vn 0.683100 0.614600 -0.394400
vn -0.688800 0.606100 0.397700
vn 0.000000 -1.000000 0.000000
vn 0.477600 0.834200 -0.275700
vn -0.866000 0.000000 0.500000
vn 0.866000 -0.005200 -0.500000
vn 0.782200 -0.429100 -0.451600
vn 0.560700 0.114300 0.820100
vn 0.476700 0.142200 0.867500
vn -0.512900 0.142200 -0.846600
vn -0.429900 0.114300 -0.895600
usemtl None
s off
f 26//15 25//15 21//15
f 31//16 34//16 30//16
f 22//17 31//17 30//17
f 25//18 26//18 35//18
f 23//19 32//19 31//19
f 20//20 29//20 28//20
f 27//20 36//20 35//20
f 24//21 33//21 32//21
f 21//22 30//22 29//22
f 26//23 19//23 28//23
f 24//24 25//24 34//24
f 21//15 20//15 19//15
f 19//15 26//15 21//15
f 25//25 24//25 23//25
f 22//15 21//15 25//15
f 25//26 23//26 22//26
f 28//16 29//16 30//16
f 31//27 32//27 34//27
f 28//16 30//16 35//16
f 34//16 35//16 30//16
f 32//28 33//28 34//28
f 21//17 22//17 30//17
f 34//18 25//18 35//18
f 22//19 23//19 31//19
f 19//20 20//20 28//20
f 26//20 27//20 35//20
f 23//21 24//21 32//21
f 20//22 21//22 29//22
f 35//23 26//23 28//23
f 33//24 24//24 34//24
o Plane
v -0.147190 0.274605 -0.182935
v -0.147190 0.274605 -0.545185
v -0.147190 0.779788 -0.545185
v -0.147190 1.208063 -0.849803
v -0.067369 1.833562 -0.373127
v -0.067369 1.779925 -0.291984
v -0.147190 1.253304 -0.542168
v -0.147190 0.788837 -0.180246
v -0.147190 0.788837 -0.182935
v 0.146269 0.274605 -0.182935
v 0.146269 0.274605 -0.545185
v 0.146269 0.779789 -0.545185
v 0.146269 1.208063 -0.849803
v 0.066448 1.833562 -0.373127
v 0.066448 1.779925 -0.291984
v 0.146269 1.253304 -0.542168
v 0.146269 0.788837 -0.180246
v 0.146269 0.788837 -0.182935
vn -1.000000 -0.000000 0.000000
vn 1.000000 -0.000000 0.000000
vn 0.000000 -0.579600 -0.814900
vn 0.000000 0.614600 0.788800
vn 0.000000 0.606100 -0.795400
vn 0.000000 -1.000000 0.000000
vn 0.000000 0.834200 0.551400
vn 0.000000 0.000000 -1.000000
vn 0.000000 -0.005200 1.000000
vn 0.000000 -0.429100 0.903300
vn -0.990600 0.114300 0.075500
vn -0.989600 0.142200 -0.020900
vn 0.989600 0.142200 -0.020900
vn 0.990600 0.114300 0.075500
usemtl None
s off
f 44//29 43//29 39//29
f 49//30 52//30 48//30
f 40//31 49//31 48//31
f 44//32 53//32 52//32
f 41//33 50//33 49//33
f 38//34 47//34 46//34
f 45//34 54//34 53//34
f 42//35 51//35 50//35
f 39//36 48//36 47//36
f 37//37 46//37 53//37
f 43//38 52//38 51//38
f 39//29 38//29 37//29
f 37//29 44//29 39//29
f 43//39 42//39 41//39
f 40//29 39//29 43//29
f 43//40 41//40 40//40
f 46//30 47//30 48//30
f 49//41 50//41 52//41
f 46//30 48//30 53//30
f 52//30 53//30 48//30
f 50//42 51//42 52//42
f 39//31 40//31 48//31
f 43//32 44//32 52//32
f 40//33 41//33 49//33
f 37//34 38//34 46//34
f 44//34 45//34 53//34
f 41//35 42//35 50//35
f 38//36 39//36 47//36
f 44//37 37//37 53//37
f 42//38 43//38 51//38
o Sphere
v -0.800000 0.000000 0.000000
v -0.784628 0.263304 0.000000
v -0.769552 0.263304 -0.153073
v -0.784628 0.000000 -0.156072
v -0.800000 0.000000 0.000000
v -0.784628 0.000000 -0.156072
v -0.784628 0.000000 0.156072
v -0.769551 0.263304 0.153073
v -0.768690 0.281957 -0.138060
v -0.781572 0.281957 -0.007271
v -0.724902 0.263304 -0.300264
v -0.739104 0.000000 -0.306147
v 0.306147 0.000000 0.739104
v 0.156072 0.000000 0.784628
v 0.000000 0.000000 0.800000
v -0.156072 0.000000 0.784628
v -0.306147 0.000000 0.739103
v -0.444456 0.000000 0.665175
v -0.565685 0.000000 0.565685
v -0.665175 0.000000 0.444456
v -0.739103 0.000000 0.306146
v -0.784628 0.000000 0.156072
v -0.739104 0.000000 -0.306147
v -0.665176 0.000000 -0.444456
v -0.565685 0.000000 -0.565686
v -0.444456 0.000000 -0.665176
v -0.306147 0.000000 -0.739104
v -0.156072 0.000000 -0.784628
v 0.000000 0.000000 -0.800000
v 0.156073 0.000000 -0.784628
v 0.306147 0.000000 -0.739104
v 0.444457 0.000000 -0.665176
v 0.565686 0.000000 -0.565685
v 0.665176 0.000000 -0.444456
v 0.739104 0.000000 -0.306147
v 0.784629 0.000000 -0.156072
v 0.800000 0.000000 0.000000
v 0.784629 0.000000 0.156072
v 0.739104 0.000000 0.306147
v 0.665176 0.000000 0.444456
v 0.565686 0.000000 0.565686
v 0.444456 0.000000 0.665176
v -0.739103 0.000000 0.306146
v -0.724901 0.263304 0.300264
v -0.781572 0.281957 0.007271
v -0.768690 0.281957 0.138060
v -0.767921 0.281957 -0.145870
v -0.782288 0.281957 -0.000000
v -0.727454 0.281957 -0.283827
v -0.767256 0.281957 -0.152617
v -0.652394 0.263304 -0.435916
v -0.665176 0.000000 -0.444456
v 0.444456 0.000000 0.665176
v 0.306147 0.000000 0.739104
v 0.156072 0.000000 0.784628
v 0.000000 0.000000 0.800000
v -0.156072 0.000000 0.784628
v -0.306147 0.000000 0.739103
v -0.444456 0.000000 0.665175
v -0.565685 0.000000 0.565685
v -0.665175 0.000000 0.444456
v -0.565685 0.000000 -0.565686
v -0.444456 0.000000 -0.665176
v -0.306147 0.000000 -0.739104
v -0.156072 0.000000 -0.784628
v 0.000000 0.000000 -0.800000
v 0.156073 0.000000 -0.784628
v 0.306147 0.000000 -0.739104
v 0.444457 0.000000 -0.665176
v 0.565686 0.000000 -0.565685
v 0.665176 0.000000 -0.444456
v 0.739104 0.000000 -0.306147
v 0.784629 0.000000 -0.156072
v 0.800000 0.000000 0.000000
v 0.784629 0.000000 0.156072
v 0.739104 0.000000 0.306147
v 0.665176 0.000000 0.444456
v 0.565686 0.000000 0.565686
v -0.652394 0.263304 0.435916
v -0.767256 0.281957 0.152617
v -0.727454 0.281957 0.283827
v -0.767920 0.281957 0.145870
v -0.767331 0.281957 -0.151857
v -0.722740 0.281957 -0.299369
v -0.650449 0.281957 -0.434616
v -0.554816 0.263304 -0.554816
v 0.435916 0.263304 0.652394
v 0.300264 0.263304 0.724902
v 0.153073 0.263304 0.769552
v 0.000000 0.263304 0.784628
v -0.153073 0.263304 0.769551
v -0.300264 0.263304 0.724901
v -0.435916 0.263304 0.652394
v -0.554815 0.263304 0.554815
v -0.435916 0.263304 -0.652395
v -0.300264 0.263304 -0.724902
v -0.153073 0.263304 -0.769552
v 0.000000 0.263304 -0.784628
v 0.153074 0.263304 -0.769552
v 0.300265 0.263304 -0.724902
v 0.435916 0.263304 -0.652394
v 0.554816 0.263304 -0.554816
v 0.652395 0.263304 -0.435916
v 0.724902 0.263304 -0.300264
v 0.769552 0.263304 -0.153073
v 0.784628 0.263304 0.000000
v 0.769552 0.263304 0.153073
v 0.724902 0.263304 0.300264
v 0.652395 0.263304 0.435916
v 0.554816 0.263304 0.554816
v -0.722739 0.281957 0.299368
v -0.650448 0.281957 0.434616
v -0.767331 0.281957 0.151857
v -0.553161 0.281957 -0.553161
v 0.340954 0.281957 0.700512
v 0.418179 0.281957 0.659234
v 0.152617 0.281957 0.767256
v 0.299369 0.281957 0.722740
v 0.000000 0.281957 0.782288
v -0.152617 0.281957 0.767256
v -0.299368 0.281957 0.722739
v -0.418178 0.281957 0.659234
v -0.340953 0.281957 0.700512
v -0.553161 0.281957 0.553161
v -0.434616 0.281957 0.650448
v -0.434616 0.281957 -0.650449
v -0.340953 0.281957 -0.700512
v -0.418178 0.281957 -0.659235
v -0.152617 0.281957 -0.767257
v -0.299368 0.281957 -0.722740
v 0.000000 0.281957 -0.782288
v 0.152617 0.281957 -0.767256
v 0.299369 0.281957 -0.722740
v 0.418179 0.281957 -0.659235
v 0.340954 0.281957 -0.700512
v 0.553161 0.281957 -0.553161
v 0.434616 0.281957 -0.650449
v 0.650449 0.281957 -0.434616
v 0.722740 0.281957 -0.299369
v 0.767257 0.281957 -0.152617
v 0.727454 0.281957 -0.283827
v 0.781572 0.281957 -0.007271
v 0.768690 0.281957 -0.138060
v 0.768690 0.281957 0.138060
v 0.781572 0.281957 0.007271
v 0.727454 0.281957 0.283827
v 0.767257 0.281957 0.152617
v 0.650449 0.281957 0.434616
v 0.722740 0.281957 0.299369
v 0.553161 0.281957 0.553161
v 0.434616 0.281957 0.650449
v 0.767332 0.281957 -0.151857
v 0.782288 0.281957 0.000000
v 0.767921 0.281957 -0.145870
v 0.767921 0.281957 0.145870
v 0.782288 0.281957 0.000000
v 0.767331 0.281957 0.151857
vn -0.993500 0.058000 -0.097900
vn -0.995200 0.000000 -0.098000
vn -0.993500 0.058000 0.097900
vn -0.987500 0.123900 -0.097300
vn -0.955300 0.058000 -0.289800
vn 0.000000 -1.000000 0.000000
vn -0.995200 0.000000 0.098000
vn -0.956900 0.000000 -0.290300
vn -0.955300 0.058000 0.289800
vn -0.987500 0.123900 0.097300
vn -0.949600 0.123900 -0.288000
vn -0.880400 0.058000 -0.470600
vn 0.471400 0.000000 0.881900
vn 0.290300 0.000000 0.956900
vn 0.098000 0.000000 0.995200
vn -0.098000 0.000000 0.995200
vn -0.290300 0.000000 0.956900
vn -0.471400 0.000000 0.881900
vn -0.634400 0.000000 0.773000
vn -0.773000 0.000000 0.634400
vn -0.881900 0.000000 0.471400
vn -0.956900 0.000000 0.290300
vn -0.881900 0.000000 -0.471400
vn -0.773000 0.000000 -0.634400
vn -0.634400 0.000000 -0.773000
vn -0.471400 0.000000 -0.881900
vn -0.290300 0.000000 -0.956900
vn -0.098000 0.000000 -0.995200
vn 0.098000 0.000000 -0.995200
vn 0.290300 0.000000 -0.956900
vn 0.471400 0.000000 -0.881900
vn 0.634400 0.000000 -0.773000
vn 0.773000 0.000000 -0.634400
vn 0.881900 0.000000 -0.471400
vn 0.956900 0.000000 -0.290300
vn 0.995200 0.000000 -0.098000
vn 0.995200 0.000000 0.098000
vn 0.956900 0.000000 0.290300
vn 0.881900 0.000000 0.471400
vn 0.773000 0.000000 0.634400
vn 0.634400 0.000000 0.773000
vn -0.880400 0.058000 0.470600
vn -0.949600 0.123900 0.288000
vn -0.987500 0.123900 -0.097200
vn -0.875100 0.123900 -0.467800
vn -0.771700 0.058000 -0.633300
vn 0.470600 0.058000 0.880400
vn 0.289800 0.058000 0.955300
vn 0.097900 0.058000 0.993500
vn -0.097900 0.058000 0.993500
vn -0.289800 0.058000 0.955300
vn -0.470600 0.058000 0.880400
vn -0.633300 0.058000 0.771700
vn -0.771700 0.058000 0.633300
vn -0.633300 0.058000 -0.771700
vn -0.470600 0.058000 -0.880400
vn -0.289800 0.058000 -0.955300
vn -0.097900 0.058000 -0.993500
vn 0.097900 0.058000 -0.993500
vn 0.289800 0.058000 -0.955300
vn 0.470600 0.058000 -0.880400
vn 0.633300 0.058000 -0.771700
vn 0.771700 0.058000 -0.633300
vn 0.880400 0.058000 -0.470600
vn 0.955300 0.058000 -0.289800
vn 0.993500 0.058000 -0.097900
vn 0.993500 0.058000 0.097900
vn 0.955300 0.058000 0.289800
vn 0.880400 0.058000 0.470600
vn 0.771700 0.058000 0.633300
vn 0.633300 0.058000 0.771700
vn -0.875100 0.123900 0.467800
vn -0.987500 0.123900 0.097200
vn -0.767100 0.123900 -0.629500
vn 0.467800 0.123900 0.875100
vn 0.288000 0.123900 0.949600
vn 0.097300 0.123900 0.987500
vn -0.097300 0.123900 0.987500
vn -0.288000 0.123900 0.949600
vn -0.467800 0.123900 0.875100
vn -0.629500 0.123900 0.767100
vn -0.767100 0.123900 0.629500
vn -0.629500 0.123900 -0.767100
vn -0.467800 0.123900 -0.875100
vn -0.288000 0.123900 -0.949600
vn -0.097300 0.123900 -0.987500
vn 0.097300 0.123900 -0.987500
vn 0.288000 0.123900 -0.949600
vn 0.467800 0.123900 -0.875100
vn 0.629500 0.123900 -0.767100
vn 0.767100 0.123900 -0.629500
vn 0.875100 0.123900 -0.467800
vn 0.949600 0.123900 -0.288000
vn 0.987500 0.123900 -0.097300
vn 0.987500 0.123900 0.097300
vn 0.949600 0.123900 0.288000
vn 0.875100 0.123900 0.467800
vn 0.767100 0.123900 0.629500
vn 0.629500 0.123900 0.767100
vn 0.987500 0.123900 0.097200
vn 0.992200 0.124500 0.000000
vn 0.000000 1.000000 0.000000
vn 0.000000 1.000000 0.000100
vn 0.000000 0.000000 1.000000
vn 0.000000 1.000000 -0.000100
usemtl None
s off
f 55//43 56//43 57//43
f 59//44 55//44 58//44
f 62//45 56//45 55//45
f 63//46 57//46 56//46
f 57//47 65//47 66//47
f 84//48 88//48 96//48
f 76//49 61//49 55//49
f 60//50 58//50 66//50
f 98//51 62//51 61//51
f 56//52 62//52 100//52
f 101//46 57//46 63//46
f 64//46 56//46 102//46
f 103//53 65//53 57//53
f 65//54 105//54 106//54
f 96//55 107//55 108//55
f 67//56 108//56 109//56
f 68//57 109//57 110//57
f 69//58 110//58 111//58
f 70//59 111//59 112//59
f 71//60 112//60 113//60
f 72//61 113//61 114//61
f 73//62 114//62 115//62
f 74//63 115//63 97//63
f 75//64 97//64 61//64
f 77//65 66//65 106//65
f 78//66 106//66 116//66
f 79//67 116//67 117//67
f 80//68 117//68 118//68
f 81//69 118//69 119//69
f 82//70 119//70 120//70
f 83//71 120//71 121//71
f 84//72 121//72 122//72
f 85//73 122//73 123//73
f 86//74 123//74 124//74
f 87//75 124//75 125//75
f 88//76 125//76 126//76
f 89//77 126//77 127//77
f 90//78 127//78 128//78
f 91//79 128//79 129//79
f 92//80 129//80 130//80
f 93//81 130//81 131//81
f 94//82 131//82 132//82
f 95//83 132//83 107//83
f 115//84 133//84 98//84
f 62//85 98//85 135//85
f 102//52 56//52 99//52
f 100//52 62//52 136//52
f 137//46 57//46 101//46
f 138//53 65//53 103//53
f 104//86 57//86 137//86
f 105//87 65//87 138//87
f 106//88 105//88 140//88
f 141//89 142//89 108//89
f 108//90 142//90 143//90
f 143//91 144//91 110//91
f 144//92 145//92 111//92
f 145//93 146//93 112//93
f 146//94 147//94 113//94
f 113//95 147//95 148//95
f 114//96 148//96 133//96
f 140//97 149//97 117//97
f 149//98 150//98 118//98
f 150//99 151//99 119//99
f 151//100 152//100 120//100
f 152//101 153//101 121//101
f 153//102 154//102 122//102
f 122//103 154//103 155//103
f 123//104 155//104 156//104
f 156//105 157//105 125//105
f 125//106 157//106 158//106
f 158//107 159//107 127//107
f 159//108 160//108 128//108
f 160//109 161//109 129//109
f 129//110 161//110 162//110
f 130//111 162//111 163//111
f 131//112 163//112 164//112
f 132//113 164//113 141//113
f 98//114 133//114 166//114
f 167//115 62//115 134//115
f 135//85 98//85 165//85
f 136//52 62//52 167//52
f 140//116 105//116 139//116
f 169//117 142//117 141//117
f 143//118 142//118 172//118
f 173//119 144//119 143//119
f 174//120 145//120 144//120
f 146//121 145//121 174//121
f 147//122 146//122 177//122
f 148//123 147//123 179//123
f 133//124 148//124 178//124
f 149//125 140//125 168//125
f 181//126 150//126 149//126
f 151//127 150//127 184//127
f 152//128 151//128 183//128
f 186//129 153//129 152//129
f 154//130 153//130 186//130
f 155//131 154//131 189//131
f 156//132 155//132 191//132
f 192//133 157//133 156//133
f 193//134 158//134 157//134
f 159//135 158//135 195//135
f 160//136 159//136 197//136
f 198//137 161//137 160//137
f 200//138 162//138 161//138
f 163//139 162//139 203//139
f 164//140 163//140 202//140
f 205//141 141//141 164//141
f 172//117 142//117 169//117
f 170//117 141//117 205//117
f 177//122 146//122 175//122
f 179//122 147//122 176//122
f 182//126 149//126 180//126
f 184//126 150//126 181//126
f 189//131 154//131 187//131
f 191//131 155//131 188//131
f 195//135 158//135 193//135
f 206//136 159//136 194//136
f 207//136 160//136 196//136
f 197//136 159//136 208//136
f 209//137 161//137 198//137
f 199//137 160//137 210//137
f 203//138 162//138 200//138
f 201//142 161//142 211//142
f 208//136 159//136 206//136
f 210//143 160//143 207//143
f 211//137 161//137 209//137
f 177//144 169//144 181//144
f 58//43 55//43 57//43
f 60//44 59//44 58//44
f 61//45 62//45 55//45
f 64//46 63//46 56//46
f 58//47 57//47 66//47
f 96//48 67//48 70//48
f 68//48 69//48 70//48
f 70//48 71//48 72//48
f 72//48 73//48 74//48
f 74//48 75//48 76//48
f 76//48 59//48 60//48
f 60//48 77//48 80//48
f 78//48 79//48 80//48
f 80//48 81//48 82//48
f 82//48 83//48 84//48
f 84//48 85//48 86//48
f 86//48 87//48 84//48
f 88//48 89//48 92//48
f 90//48 91//48 92//48
f 92//48 93//48 94//48
f 94//48 95//48 96//48
f 67//48 68//48 70//48
f 70//48 72//48 96//48
f 74//48 76//48 80//48
f 77//48 78//48 80//48
f 80//48 82//48 84//48
f 84//48 87//48 88//48
f 89//48 90//48 92//48
f 92//48 94//48 88//48
f 96//48 72//48 74//48
f 76//48 60//48 80//48
f 80//48 84//48 96//48
f 88//48 94//48 96//48
f 96//48 74//48 80//48
f 59//49 76//49 55//49
f 77//50 60//50 66//50
f 97//51 98//51 61//51
f 99//52 56//52 100//52
f 104//53 103//53 57//53
f 66//54 65//54 106//54
f 67//55 96//55 108//55
f 68//56 67//56 109//56
f 69//57 68//57 110//57
f 70//58 69//58 111//58
f 71//59 70//59 112//59
f 72//60 71//60 113//60
f 73//61 72//61 114//61
f 74//62 73//62 115//62
f 75//63 74//63 97//63
f 76//64 75//64 61//64
f 78//65 77//65 106//65
f 79//66 78//66 116//66
f 80//67 79//67 117//67
f 81//68 80//68 118//68
f 82//69 81//69 119//69
f 83//70 82//70 120//70
f 84//71 83//71 121//71
f 85//72 84//72 122//72
f 86//73 85//73 123//73
f 87//74 86//74 124//74
f 88//75 87//75 125//75
f 89//76 88//76 126//76
f 90//77 89//77 127//77
f 91//78 90//78 128//78
f 92//79 91//79 129//79
f 93//80 92//80 130//80
f 94//81 93//81 131//81
f 95//82 94//82 132//82
f 96//83 95//83 107//83
f 97//84 115//84 98//84
f 134//85 62//85 135//85
f 139//87 105//87 138//87
f 116//88 106//88 140//88
f 107//89 141//89 108//89
f 109//90 108//90 143//90
f 109//91 143//91 110//91
f 110//92 144//92 111//92
f 111//93 145//93 112//93
f 112//94 146//94 113//94
f 114//95 113//95 148//95
f 115//96 114//96 133//96
f 116//97 140//97 117//97
f 117//98 149//98 118//98
f 118//99 150//99 119//99
f 119//100 151//100 120//100
f 120//101 152//101 121//101
f 121//102 153//102 122//102
f 123//103 122//103 155//103
f 124//104 123//104 156//104
f 124//105 156//105 125//105
f 126//106 125//106 158//106
f 126//107 158//107 127//107
f 127//108 159//108 128//108
f 128//109 160//109 129//109
f 130//110 129//110 162//110
f 131//111 130//111 163//111
f 132//112 131//112 164//112
f 107//113 132//113 141//113
f 165//114 98//114 166//114
f 168//116 140//116 139//116
f 170//117 169//117 141//117
f 171//118 143//118 172//118
f 171//119 173//119 143//119
f 173//120 174//120 144//120
f 175//121 146//121 174//121
f 176//122 147//122 177//122
f 178//123 148//123 179//123
f 166//124 133//124 178//124
f 180//125 149//125 168//125
f 182//126 181//126 149//126
f 183//127 151//127 184//127
f 185//128 152//128 183//128
f 185//129 186//129 152//129
f 187//130 154//130 186//130
f 188//131 155//131 189//131
f 190//132 156//132 191//132
f 190//133 192//133 156//133
f 192//134 193//134 157//134
f 194//135 159//135 195//135
f 196//136 160//136 197//136
f 199//137 198//137 160//137
f 201//138 200//138 161//138
f 202//139 163//139 203//139
f 204//140 164//140 202//140
f 204//141 205//141 164//141
f 183//144 184//144 181//144
f 182//144 180//144 168//144
f 183//144 181//144 185//144
f 186//144 185//144 189//144
f 189//144 187//144 186//144
f 191//144 188//144 190//144
f 192//144 190//144 189//144
f 195//144 193//144 192//144
f 206//145 194//145 195//145
f 196//144 197//144 195//144
f 208//144 206//144 195//144
f 195//144 192//144 189//144
f 188//144 189//144 190//144
f 185//144 181//144 189//144
f 182//144 168//144 181//144
f 139//144 138//144 103//144
f 103//145 104//145 137//145
f 137//144 101//144 103//144
f 64//144 102//144 99//144
f 101//144 63//144 103//144
f 139//144 103//144 181//144
f 181//144 169//144 189//144
f 195//144 189//144 198//144
f 197//144 208//144 195//144
f 198//144 199//144 195//144
f 207//144 196//144 195//144
f 209//144 198//144 200//144
f 210//146 207//146 195//146
f 181//144 168//144 139//144
f 103//144 63//144 181//144
f 64//144 99//144 100//144
f 100//144 136//144 135//144
f 167//147 134//147 135//147
f 135//144 165//144 166//144
f 166//144 178//144 177//144
f 179//144 176//144 178//144
f 177//144 175//144 174//144
f 174//144 173//144 177//144
f 171//144 172//144 169//144
f 169//144 204//144 202//144
f 205//144 204//144 170//144
f 202//144 203//144 200//144
f 200//147 201//147 211//147
f 211//144 209//144 200//144
f 210//144 195//144 199//144
f 63//144 64//144 100//144
f 136//144 167//144 135//144
f 135//144 166//144 177//144
f 176//144 177//144 178//144
f 173//144 171//144 169//144
f 170//144 204//144 169//144
f 202//144 200//144 169//144
f 198//144 169//144 200//144
f 63//144 100//144 181//144
f 177//144 181//144 100//144
f 173//144 169//144 177//144
f 198//144 189//144 169//144
f 135//144 177//144 100//144
