# Blender v2.76 (sub 0) OBJ File: 'token.blend'
# www.blender.org
mtllib token.mtl
o Cube_Cube.001
v 0.000000 0.521819 0.000000
v -0.104364 0.104364 -0.104364
v -0.104364 0.104364 0.104364
v 0.104364 0.104364 0.104364
v 0.104364 0.104364 -0.104364
v -0.104364 -0.104364 -0.104364
v 0.000000 -0.521819 0.000000
v -0.104364 -0.104364 0.104364
v 0.104364 -0.104364 -0.104364
v 0.104364 -0.104364 0.104364
v 0.521819 -0.000000 0.000000
v -0.521819 0.000000 0.000000
v 0.000000 -0.000000 0.521819
v 0.000000 0.000000 -0.521819
vn 0.970100 0.242500 0.000000
vn 0.000000 0.242500 -0.970100
vn 0.000000 0.242500 0.970100
vn -0.970100 0.242500 0.000000
vn 0.970100 0.000000 -0.242500
vn -0.000000 -0.970100 -0.242500
vn 0.000000 0.970100 -0.242500
vn -0.970100 0.000000 -0.242500
vn 0.970100 0.000000 0.242500
vn 0.000000 0.970100 0.242500
vn 0.000000 -0.970100 0.242500
vn -0.970100 0.000000 0.242500
vn 0.242500 -0.970100 0.000000
vn 0.242500 0.000000 -0.970100
vn 0.242500 0.000000 0.970100
vn 0.242500 0.970100 0.000000
vn 0.970100 -0.242500 0.000000
vn 0.000000 -0.242500 0.970100
vn 0.000000 -0.242500 -0.970100
vn -0.970100 -0.242500 0.000000
vn -0.242500 0.970100 0.000000
vn -0.242500 0.000000 -0.970100
vn -0.242500 0.000000 0.970100
vn -0.242500 -0.970100 0.000000
usemtl None
s off
f 1//1 4//1 5//1
f 1//2 5//2 2//2
f 1//3 3//3 4//3
f 1//4 2//4 3//4
f 9//5 14//5 5//5
f 6//6 14//6 9//6
f 5//7 14//7 2//7
f 2//8 14//8 6//8
f 13//9 10//9 4//9
f 13//10 4//10 3//10
f 13//11 8//11 10//11
f 13//12 3//12 8//12
f 11//13 10//13 9//13
f 11//14 9//14 5//14
f 11//15 4//15 10//15
f 11//16 5//16 4//16
f 10//17 7//17 9//17
f 8//18 7//18 10//18
f 9//19 7//19 6//19
f 6//20 7//20 8//20
f 2//21 12//21 3//21
f 6//22 12//22 2//22
f 3//23 12//23 8//23
f 8//24 12//24 6//24
