# Blender v2.76 (sub 0) OBJ File: 'coordinates.blend'
# www.blender.org
mtllib yAxis.mtl
o Cone
v 6.179627 0.150225 0.000000
v 6.991413 -0.000000 -0.000000
v 6.179627 0.147338 -0.029307
v 6.179627 0.138790 -0.057488
v 6.179627 0.124907 -0.083460
v 6.179627 0.106225 -0.106225
v 6.179627 0.083460 -0.124907
v 6.179627 0.057489 -0.138789
v 6.179627 0.029307 -0.147338
v 6.179627 0.000000 -0.150225
v 6.179627 -0.029307 -0.147338
v 6.179627 -0.057488 -0.138789
v 6.179627 -0.083460 -0.124907
v 6.179627 -0.106225 -0.106225
v 6.179627 -0.124907 -0.083460
v 6.179627 -0.138790 -0.057488
v 6.179627 -0.147338 -0.029307
v 6.179627 -0.150225 0.000000
v 6.179627 -0.147338 0.029307
v 6.179627 -0.138789 0.057489
v 6.179627 -0.124907 0.083460
v 6.179627 -0.106225 0.106225
v 6.179627 -0.083460 0.124907
v 6.179627 -0.057488 0.138790
v 6.179627 -0.029307 0.147338
v 6.179627 0.000000 0.150225
v 6.179627 0.029308 0.147338
v 6.179627 0.057489 0.138789
v 6.179627 0.083461 0.124907
v 6.179627 0.106225 0.106225
v 6.179627 0.124907 0.083460
v 6.179627 0.138790 0.057488
v 6.179627 0.147338 0.029307
v -0.008587 0.050000 0.000000
v 6.585520 0.050000 -0.000000
v -0.008587 0.049040 -0.009754
v 6.585520 0.049039 -0.009755
v -0.008587 0.046194 -0.019134
v 6.585520 0.046194 -0.019134
v -0.008587 0.041574 -0.027778
v 6.585520 0.041573 -0.027779
v -0.008587 0.035356 -0.035355
v 6.585520 0.035355 -0.035355
v -0.008587 0.027779 -0.041573
v 6.585520 0.027779 -0.041573
v -0.008587 0.019134 -0.046194
v 6.585520 0.019134 -0.046194
v -0.008587 0.009755 -0.049039
v 6.585520 0.009755 -0.049039
v -0.008587 0.000000 -0.050000
v 6.585520 0.000000 -0.050000
v -0.008587 -0.009754 -0.049039
v 6.585520 -0.009755 -0.049039
v -0.008587 -0.019134 -0.046194
v 6.585520 -0.019134 -0.046194
v -0.008587 -0.027778 -0.041573
v 6.585520 -0.027779 -0.041573
v -0.008587 -0.035355 -0.035355
v 6.585520 -0.035355 -0.035355
v -0.008587 -0.041573 -0.027778
v 6.585520 -0.041573 -0.027779
v -0.008587 -0.046194 -0.019134
v 6.585520 -0.046194 -0.019134
v -0.008587 -0.049039 -0.009754
v 6.585520 -0.049039 -0.009755
v -0.008587 -0.050000 0.000000
v 6.585520 -0.050000 0.000000
v -0.008587 -0.049039 0.009755
v 6.585520 -0.049039 0.009755
v -0.008587 -0.046194 0.019134
v 6.585520 -0.046194 0.019134
v -0.008587 -0.041573 0.027779
v 6.585520 -0.041573 0.027779
v -0.008587 -0.035355 0.035356
v 6.585520 -0.035355 0.035355
v -0.008587 -0.027778 0.041574
v 6.585520 -0.027778 0.041573
v -0.008587 -0.019134 0.046194
v 6.585520 -0.019134 0.046194
v -0.008587 -0.009754 0.049040
v 6.585520 -0.009754 0.049039
v -0.008587 0.000000 0.050000
v 6.585520 0.000000 0.050000
v -0.008587 0.009755 0.049040
v 6.585520 0.009755 0.049039
v -0.008587 0.019135 0.046194
v 6.585520 0.019134 0.046194
v -0.008587 0.027779 0.041574
v 6.585520 0.027779 0.041573
v -0.008587 0.035356 0.035356
v 6.585520 0.035355 0.035355
v -0.008587 0.041574 0.027779
v 6.585520 0.041574 0.027778
v -0.008587 0.046194 0.019134
v 6.585520 0.046194 0.019134
v -0.008587 0.049040 0.009755
v 6.585520 0.049039 0.009754
vn 0.181100 0.941100 0.285500
vn 0.181100 0.978700 -0.096400
vn 0.181100 0.867300 0.463600
vn 0.181100 0.760200 0.623900
vn 0.181100 0.623900 0.760200
vn 0.181100 0.463600 0.867300
vn 0.181100 0.285500 0.941100
vn 0.181100 0.096400 0.978700
vn 0.181100 -0.096400 0.978700
vn 0.181100 -0.285500 0.941100
vn 0.181100 -0.463600 0.867300
vn 0.181100 -0.623900 0.760200
vn 0.181100 -0.760200 0.623900
vn 0.181100 -0.867300 0.463600
vn 0.181100 -0.941100 0.285500
vn 0.181100 -0.978700 0.096400
vn 0.181100 -0.978700 -0.096400
vn 0.181100 -0.941100 -0.285500
vn 0.181100 -0.867300 -0.463600
vn 0.181100 -0.760200 -0.623900
vn 0.181100 -0.623900 -0.760200
vn 0.181100 -0.463600 -0.867300
vn 0.181100 -0.285500 -0.941100
vn 0.181100 -0.096400 -0.978700
vn 0.181100 0.096400 -0.978700
vn 0.181100 0.285500 -0.941100
vn 0.181100 0.463600 -0.867300
vn 0.181100 0.623900 -0.760200
vn 0.181100 0.760200 -0.623900
vn 0.181100 0.867300 -0.463600
vn 0.181100 0.978700 0.096400
vn 0.181100 0.941100 -0.285500
vn -1.000000 -0.000000 0.000000
vn 0.000000 0.995200 -0.098000
vn 0.000000 0.956900 -0.290300
vn 0.000000 0.881900 -0.471400
vn 0.000000 0.773000 -0.634400
vn -0.000000 0.634400 -0.773000
vn -0.000000 0.471400 -0.881900
vn -0.000000 0.290300 -0.956900
vn -0.000000 0.098000 -0.995200
vn -0.000000 -0.098000 -0.995200
vn -0.000000 -0.290300 -0.956900
vn -0.000000 -0.471400 -0.881900
vn -0.000000 -0.634400 -0.773000
vn -0.000000 -0.773000 -0.634400
vn -0.000000 -0.881900 -0.471400
vn -0.000000 -0.956900 -0.290300
vn -0.000000 -0.995200 -0.098000
vn -0.000000 -0.995200 0.098000
vn -0.000000 -0.956900 0.290300
vn -0.000000 -0.881900 0.471400
vn -0.000000 -0.773000 0.634400
vn 0.000000 -0.634400 0.773000
vn 0.000000 -0.471400 0.881900
vn 0.000000 -0.290300 0.956900
vn 0.000000 -0.098000 0.995200
vn 0.000000 0.098000 0.995200
vn 0.000000 0.290300 0.956900
vn 0.000000 0.471400 0.881900
vn 0.000000 0.634400 0.773000
vn 0.000000 0.773000 0.634400
vn 0.000000 0.881900 0.471400
vn 1.000000 0.000000 0.000000
vn 0.000000 0.995200 0.098000
vn 0.000000 0.956900 0.290300
vn -1.000000 0.000200 0.000000
vn -1.000000 0.000100 0.000000
vn -1.000000 -0.000100 0.000000
vn 1.000000 0.000800 0.000000
vn 1.000000 -0.000500 0.000000
vn 1.000000 -0.000400 0.000000
vn 1.000000 0.000300 0.000000
vn 1.000000 -0.000100 0.000000
vn 1.000000 0.000400 0.000000
vn 1.000000 -0.000200 0.000000
vn 1.000000 0.000500 0.000000
usemtl None
s off
f 32//1 2//1 33//1
f 1//2 2//2 3//2
f 31//3 2//3 32//3
f 30//4 2//4 31//4
f 29//5 2//5 30//5
f 28//6 2//6 29//6
f 27//7 2//7 28//7
f 26//8 2//8 27//8
f 25//9 2//9 26//9
f 24//10 2//10 25//10
f 23//11 2//11 24//11
f 22//12 2//12 23//12
f 21//13 2//13 22//13
f 20//14 2//14 21//14
f 19//15 2//15 20//15
f 18//16 2//16 19//16
f 17//17 2//17 18//17
f 16//18 2//18 17//18
f 15//19 2//19 16//19
f 14//20 2//20 15//20
f 13//21 2//21 14//21
f 12//22 2//22 13//22
f 11//23 2//23 12//23
f 10//24 2//24 11//24
f 9//25 2//25 10//25
f 8//26 2//26 9//26
f 7//27 2//27 8//27
f 6//28 2//28 7//28
f 5//29 2//29 6//29
f 4//30 2//30 5//30
f 33//31 2//31 1//31
f 3//32 2//32 4//32
f 21//33 25//33 33//33
f 35//34 37//34 36//34
f 37//35 39//35 38//35
f 39//36 41//36 40//36
f 41//37 43//37 42//37
f 43//38 45//38 44//38
f 45//39 47//39 46//39
f 47//40 49//40 48//40
f 49//41 51//41 50//41
f 51//42 53//42 52//42
f 53//43 55//43 54//43
f 55//44 57//44 56//44
f 57//45 59//45 58//45
f 59//46 61//46 60//46
f 61//47 63//47 62//47
f 62//48 63//48 65//48
f 65//49 67//49 66//49
f 67//50 69//50 68//50
f 69//51 71//51 70//51
f 71//52 73//52 72//52
f 73//53 75//53 74//53
f 75//54 77//54 76//54
f 77//55 79//55 78//55
f 79//56 81//56 80//56
f 81//57 83//57 82//57
f 83//58 85//58 84//58
f 85//59 87//59 86//59
f 87//60 89//60 88//60
f 89//61 91//61 90//61
f 91//62 93//62 92//62
f 93//63 95//63 94//63
f 63//64 55//64 39//64
f 97//65 35//65 34//65
f 95//66 97//66 96//66
f 64//33 80//33 96//33
f 33//67 1//67 3//67
f 3//33 4//33 33//33
f 5//33 6//33 7//33
f 7//33 8//33 5//33
f 9//33 10//33 11//33
f 11//33 12//33 9//33
f 13//33 14//33 15//33
f 15//33 16//33 17//33
f 17//33 18//33 19//33
f 19//33 20//33 17//33
f 21//68 22//68 23//68
f 23//33 24//33 25//33
f 25//33 26//33 27//33
f 27//68 28//68 29//68
f 29//68 30//68 33//68
f 31//33 32//33 33//33
f 33//69 4//69 5//69
f 5//33 8//33 9//33
f 9//33 12//33 13//33
f 13//33 15//33 9//33
f 17//68 20//68 21//68
f 21//33 23//33 25//33
f 25//33 27//33 33//33
f 30//33 31//33 33//33
f 33//33 5//33 17//33
f 9//33 15//33 17//33
f 17//33 21//33 33//33
f 27//33 29//33 33//33
f 5//33 9//33 17//33
f 34//34 35//34 36//34
f 36//35 37//35 38//35
f 38//36 39//36 40//36
f 40//37 41//37 42//37
f 42//38 43//38 44//38
f 44//39 45//39 46//39
f 46//40 47//40 48//40
f 48//41 49//41 50//41
f 50//42 51//42 52//42
f 52//43 53//43 54//43
f 54//44 55//44 56//44
f 56//45 57//45 58//45
f 58//46 59//46 60//46
f 60//47 61//47 62//47
f 64//48 62//48 65//48
f 64//49 65//49 66//49
f 66//50 67//50 68//50
f 68//51 69//51 70//51
f 70//52 71//52 72//52
f 72//53 73//53 74//53
f 74//54 75//54 76//54
f 76//55 77//55 78//55
f 78//56 79//56 80//56
f 80//57 81//57 82//57
f 82//58 83//58 84//58
f 84//59 85//59 86//59
f 86//60 87//60 88//60
f 88//61 89//61 90//61
f 90//62 91//62 92//62
f 92//63 93//63 94//63
f 39//70 37//70 35//70
f 35//71 97//71 39//71
f 95//64 93//64 91//64
f 91//72 89//72 87//72
f 87//64 85//64 83//64
f 83//64 81//64 87//64
f 79//64 77//64 71//64
f 75//72 73//72 71//72
f 71//73 69//73 63//73
f 67//72 65//72 63//72
f 63//72 61//72 59//72
f 59//64 57//64 55//64
f 55//64 53//64 51//64
f 51//74 49//74 55//74
f 47//75 45//75 43//75
f 43//72 41//72 39//72
f 39//76 97//76 95//76
f 95//64 91//64 39//64
f 87//64 81//64 79//64
f 77//73 75//73 71//73
f 69//77 67//77 63//77
f 63//64 59//64 55//64
f 55//64 49//64 47//64
f 47//64 43//64 55//64
f 39//64 91//64 87//64
f 87//64 79//64 71//64
f 71//64 63//64 39//64
f 55//64 43//64 39//64
f 39//64 87//64 71//64
f 96//65 97//65 34//65
f 94//66 95//66 96//66
f 96//33 34//33 36//33
f 36//33 38//33 40//33
f 40//33 42//33 48//33
f 44//33 46//33 48//33
f 48//33 50//33 52//33
f 52//33 54//33 56//33
f 56//33 58//33 64//33
f 60//33 62//33 64//33
f 64//33 66//33 68//33
f 68//33 70//33 72//33
f 72//33 74//33 76//33
f 76//33 78//33 80//33
f 80//33 82//33 84//33
f 84//33 86//33 80//33
f 88//33 90//33 96//33
f 92//33 94//33 96//33
f 96//33 36//33 40//33
f 42//33 44//33 48//33
f 48//33 52//33 64//33
f 58//33 60//33 64//33
f 64//33 68//33 80//33
f 72//33 76//33 80//33
f 80//33 86//33 88//33
f 90//33 92//33 96//33
f 96//33 40//33 48//33
f 52//33 56//33 64//33
f 68//33 72//33 80//33
f 80//33 88//33 96//33
f 96//33 48//33 64//33
